<svg width="73" height="68" viewBox="0 0 73 68" fill="none" xmlns="http://www.w3.org/2000/svg">
<path fill-rule="evenodd" clip-rule="evenodd" d="M43.6301 67.3686L8.35064 47H2C0.89543 47 0 46.1046 0 45V42.1788V24.8882V23C0 21.8954 0.89543 21 2 21H6.83003L43.2539 0.264792C44.5825 -0.491555 46.234 0.461951 46.2433 1.99074L46.63 65.6244C46.6394 67.1694 44.9681 68.1411 43.6301 67.3686ZM65 5.00001C65 3.89544 65.8954 3.00001 67 3.00001H71C72.1046 3.00001 73 3.89544 73 5.00001V64C73 65.1046 72.1046 66 71 66H67C65.8954 66 65 65.1046 65 64V5.00001ZM54 13C52.8954 13 52 13.8954 52 15V54C52 55.1046 52.8954 56 54 56H58C59.1046 56 60 55.1046 60 54V15C60 13.8954 59.1046 13 58 13H54Z" fill="#434755" fill-opacity="0.69"/>
</svg>
