<svg width="73" height="68" viewBox="0 0 73 68" fill="none" xmlns="http://www.w3.org/2000/svg">
<path fill-rule="evenodd" clip-rule="evenodd" d="M43.6301 67.3686L8.35064 47H2C0.895431 47 0 46.1046 0 45V42.1788V24.8882V23C0 21.8954 0.895431 21 2 21H6.83004L43.2539 0.264793C44.5825 -0.491555 46.234 0.461948 46.2433 1.99073L46.63 65.6244C46.6394 67.1694 44.9681 68.1411 43.6301 67.3686ZM52 15C52 13.8954 52.8954 13 54 13H58C59.1046 13 60 13.8954 60 15V54C60 55.1046 59.1046 56 58 56H54C52.8954 56 52 55.1046 52 54V15Z" fill="#434755" fill-opacity="0.69"/>
</svg>
