<svg width="78" height="69" viewBox="0 0 78 69" fill="none" xmlns="http://www.w3.org/2000/svg">
<path fill-rule="evenodd" clip-rule="evenodd" d="M43.6301 67.3686L8.35064 47H2C0.89543 47 0 46.1046 0 45V42.1788V24.8882V23C0 21.8954 0.89543 21 2 21H6.83005L17.4947 14.9289L46.4982 43.9324L46.63 65.6244C46.6394 67.1694 44.9681 68.1411 43.6301 67.3686ZM46.4216 31.3275L25.4782 10.3841L43.2539 0.264793C44.5825 -0.491555 46.234 0.461948 46.2433 1.99073L46.4216 31.3275ZM10.1103 6.04505C9.32925 5.264 9.32925 3.99767 10.1103 3.21662L12.0548 1.27208C12.8359 0.491027 14.1022 0.491027 14.8833 1.27208L77.1087 63.4975C77.8897 64.2785 77.8897 65.5448 77.1087 66.3259L75.1641 68.2704C74.3831 69.0515 73.1167 69.0515 72.3357 68.2704L10.1103 6.04505ZM52 49.4342V54C52 55.1046 52.8954 56 54 56H58C58.1735 56 58.3418 55.9779 58.5022 55.9364L52 49.4342ZM60 15V44.9059L52 36.9059V15C52 13.8954 52.8954 13 54 13H58C59.1046 13 60 13.8954 60 15ZM67 3C65.8954 3 65 3.89543 65 5V49.9059L73 57.9059V5C73 3.89543 72.1046 3 71 3H67ZM68.5658 66L65 62.4342V64C65 65.1046 65.8954 66 67 66H68.5658Z" fill="#434755" fill-opacity="0.69"/>
</svg>
